<svg xmlns="http://www.w3.org/2000/svg" viewBox="0 0 32 32">
  <!-- Background circle -->
  <circle cx="16" cy="16" r="15.5" fill="#1E7DC4"/>
  <!-- Outer ring -->
  <circle cx="16" cy="16" r="15.5" fill="none" stroke="#5FC0E8" stroke-width="1.5"/>
  <circle cx="16" cy="16" r="11.5" fill="none" stroke="#5FC0E8" stroke-width=".8"/>
  <!-- Malawi silhouette (simplified) -->
  <path d="M16,5 C17.5,5.2 19.5,7.5 19,10.5 C19.3,13 19,15 19.2,16 L19.2,18 C18.8,20 18,21.5 17,23 C16.5,24 16.2,24.5 16,25 C15.8,24.5 15.5,24 15,23 C14,21.5 13.2,20 12.8,18 L12.8,16 C13,15 12.7,13 13,10.5 C12.5,7.5 14.5,5.2 16,5 Z" fill="white" opacity="0.85"/>
  <!-- MALAWI label -->
  <rect x="9" y="14.5" width="14" height="4" rx=".8" fill="white"/>
  <text x="16" y="17.8" text-anchor="middle" font-family="Arial Black,Arial,sans-serif" font-size="3" font-weight="900" fill="#1355A0" letter-spacing=".5">MALAWI</text>
  <!-- Wave at bottom -->
  <path d="M5,22 Q10,20.5 16,22 Q22,23.5 27,22 L27,27 L5,27 Z" fill="#1355A0" opacity="0.35"/>
</svg>
